nColumns=19
nRows=84
DataType=double
version=3
OpenSimVersion=4.1
endheader
time	ground_force_1_vx	ground_force_1_vy	ground_force_1_vz	ground_force_1_px	ground_force_1_py	ground_force_1_pz	ground_force_1_mx	ground_force_1_my	ground_force_1_mz	ground_force_2_vx	ground_force_2_vy	ground_force_2_vz	ground_force_2_px	ground_force_2_py	ground_force_2_pz	ground_force_2_mx	ground_force_2_my	ground_force_2_mz
0	0	0	0	0.162121	0	-0.133393	0	0	0	0	0	0	0.779323	0	-0.286092	0	0	0
0.01	6.00231	70.3693	6.86274	0.165191	0.0057	-0.136293	0	0.176898	0	0	0	0	0.779323	0	-0.286092	0	0	0
0.02	-4.16485	176.633	11.595	0.169303	0.006	-0.137193	0	0.124749	0	0	0	0	0.779323	0	-0.286092	0	0	0
0.03	-32.9455	259.099	9.16587	0.172727	0.006	-0.135133	0	-0.300685	0	0	0	0	0.779323	0	-0.286092	0	0	0
0.04	-58.4217	324.181	6.17796	0.176267	0.006	-0.134105	0	-0.625149	0	0	0	0	0.779323	0	-0.286092	0	0	0
0.05	-79.2406	374.016	5.49166	0.179918	0.006	-0.134123	0	-0.147717	0	0	0	0	0.779323	0	-0.286092	0	0	0
0.06	-93.6629	412.547	3.52232	0.184269	0.006	-0.133797	0	0.752192	0	0	0	0	0.779323	0	-0.286092	0	0	0
0.07	-105.933	452.306	-0.336705	0.189969	0.006	-0.133232	0	1.16166	0	0	0	0	0.779323	0	-0.286092	0	0	0
0.08	-120.046	503.974	-8.72233	0.197029	0.006	-0.132426	0	0.849906	0	0	0	0	0.779323	0	-0.286092	0	0	0
0.09	-134.773	561.695	-20.1027	0.204602	0.006	-0.131408	0	0.633121	0	0	0	0	0.779323	0	-0.286092	0	0	0
0.1	-147.779	610.257	-28.9903	0.21159	0.006	-0.130717	0	1.00976	0	0	0	0	0.779323	0	-0.286092	0	0	0
0.11	-158.429	644.442	-35.8256	0.217542	0.006	-0.130202	0	1.49966	0	0	0	0	0.779323	0	-0.286092	0	0	0
0.12	-166.192	672.094	-42.5342	0.222453	0.006	-0.129806	0	1.79315	0	0	0	0	0.779323	0	-0.286092	0	0	0
0.13	-169.029	696.683	-46.8027	0.226163	0.006	-0.129676	0	2.03915	0	0	0	0	0.779323	0	-0.286092	0	0	0
0.14	-165.878	715.683	-47.241	0.228642	0.006	-0.12988	0	2.28316	0	0	0	0	0.779323	0	-0.286092	0	0	0
0.15	-158.708	729.539	-46.1177	0.230297	0.006	-0.130209	0	2.42895	0	0	0	0	0.779323	0	-0.286092	0	0	0
0.16	-149.227	735.961	-45.0503	0.231571	0.006	-0.130433	0	2.46588	0	0	0	0	0.779323	0	-0.286092	0	0	0
0.17	-138.093	730.227	-44.0051	0.232616	0.006	-0.13051	0	2.45167	0	0	0	0	0.779323	0	-0.286092	0	0	0
0.18	-126.498	713.616	-42.6858	0.233661	0.006	-0.130492	0	2.38447	0	0	0	0	0.779323	0	-0.286092	0	0	0
0.19	-115.171	689.245	-40.7163	0.234837	0.006	-0.130457	0	2.29856	0	0	0	0	0.779323	0	-0.286092	0	0	0
0.2	-103.528	659.102	-38.3819	0.236075	0.006	-0.130317	0	2.20547	0	0	0	0	0.779323	0	-0.286092	0	0	0
0.21	-92.0293	626.485	-36.5461	0.237278	0.006	-0.130039	0	2.09117	0	0	0	0	0.779323	0	-0.286092	0	0	0
0.22	-81.6114	594.127	-35.4917	0.238469	0.006	-0.129678	0	1.95359	0	0	0	0	0.779323	0	-0.286092	0	0	0
0.23	-71.9385	562.947	-34.9159	0.239804	0.006	-0.129171	0	1.79859	0	0	0	0	0.779323	0	-0.286092	0	0	0
0.24	-62.6171	533.488	-34.4128	0.241182	0.006	-0.128551	0	1.6147	0	0	0	0	0.779323	0	-0.286092	0	0	0
0.25	-54.0197	506.563	-33.5644	0.24262	0.006	-0.128039	0	1.38758	0	0	0	0	0.779323	0	-0.286092	0	0	0
0.26	-46.1349	482.577	-31.992	0.244139	0.006	-0.127647	0	1.14978	0	0	0	0	0.779323	0	-0.286092	0	0	0
0.27	-39.1284	462.944	-30.0437	0.245731	0.006	-0.127309	0	0.893923	0	0	0	0	0.779323	0	-0.286092	0	0	0
0.28	-33.3457	449.416	-28.3041	0.247389	0.006	-0.12711	0	0.60328	0	0	0	0	0.779323	0	-0.286092	0	0	0
0.29	-28.5397	441.65	-26.7917	0.24932	0.006	-0.126982	0	0.350585	0	0	0	0	0.779323	0	-0.286092	0	0	0
0.3	-24.5593	439.024	-25.3761	0.251596	0.006	-0.126894	0	0.143831	0	0	0	0	0.779323	0	-0.286092	0	0	0
0.31	-21.6801	441.709	-24.4725	0.254063	0.006	-0.126743	0	-0.0725539	0	0	0	0	0.779323	0	-0.286092	0	0	0
0.32	-19.6442	449.472	-24.1883	0.256589	0.006	-0.126618	0	-0.305043	0	0	0	0	0.779323	0	-0.286092	0	0	0
0.33	-18.4789	460.164	-24.472	0.259292	0.006	-0.126509	0	-0.518697	0	0	0	0	0.779323	0	-0.286092	0	0	0
0.34	-18.2539	472.306	-25.2556	0.26226	0.006	-0.126411	0	-0.73639	0	0	0	0	0.779323	0	-0.286092	0	0	0
0.35	-18.1856	485.177	-26.1623	0.265376	0.006	-0.126386	0	-0.933694	0	0	0	0	0.779323	0	-0.286092	0	0	0
0.36	-17.7053	499.023	-26.7356	0.268248	0.006	-0.126487	0	-1.11898	0	0	0	0	0.779323	0	-0.286092	0	0	0
0.37	-16.1854	515.665	-26.8358	0.270712	0.006	-0.126779	0	-1.35556	0	0	0	0	0.779323	0	-0.286092	0	0	0
0.38	-13.4877	536.34	-26.7873	0.272871	0.006	-0.127326	0	-1.627	0	0	0	0	0.779323	0	-0.286092	0	0	0
0.39	-10.3084	557.522	-27.065	0.274882	0.006	-0.127946	0	-1.95213	0	0	0	0	0.779323	0	-0.286092	0	0	0
0.4	-7.20569	575.082	-27.8146	0.276876	0.006	-0.128502	0	-2.37577	0	0	0	0	0.779323	0	-0.286092	0	0	0
0.41	-4.28841	587.671	-28.3326	0.278932	0.006	-0.129044	0	-2.85902	0	0	0	0	0.779323	0	-0.286092	0	0	0
0.42	-1.0193	596.117	-28.2097	0.281049	0.006	-0.129624	0	-3.33347	0	0	0	0	0.779323	0	-0.286092	0	0	0
0.43	3.33494	601.87	-27.9172	0.283335	0.006	-0.130145	0	-3.74171	0	0	0	0	0.779323	0	-0.286092	0	0	0
0.44	8.69397	606.221	-27.3177	0.285944	0.006	-0.130489	0	-4.06329	0	0	0	0	0.779323	0	-0.286092	0	0	0
0.45	14.7007	609.054	-27.0887	0.288781	0.006	-0.130516	0	-4.2865	0	0	0	0	0.779323	0	-0.286092	0	0	0
0.46	20.4377	608.975	-28.3199	0.291859	0.006	-0.130159	0	-4.41204	0	0	0	0	0.779323	0	-0.286092	0	0	0
0.47	25.9236	606.574	-30.7683	0.295331	0.006	-0.129489	0	-4.43762	0	0	0	0	0.779323	0	-0.286092	0	0	0
0.48	31.516	603.951	-33.8573	0.299194	0.006	-0.128685	0	-4.39702	0	0	0	0	0.779323	0	-0.286092	0	0	0
0.49	37.4156	603.804	-36.7759	0.303114	0.006	-0.127936	0	-4.34917	0	0	0	0	0.779323	0	-0.286092	0	0	0
0.5	43.7359	606.651	-39.0511	0.307194	0.006	-0.127405	0	-4.32379	0	0	0	0	0.779323	0	-0.286092	0	0	0
0.51	50.3933	611.995	-41.1005	0.311549	0.006	-0.127188	0	-4.25368	0	0	0	0	0.779323	0	-0.286092	0	0	0
0.52	57.1402	618.996	-42.6413	0.315986	0.006	-0.127265	0	-4.1654	0	0	0	0	0.779323	0	-0.286092	0	0	0
0.53	63.703	626.385	-43.3889	0.32075	0.006	-0.12772	0	-4.08371	0	0	0	0	0.779323	0	-0.286092	0	0	0
0.54	69.7763	633.204	-42.8732	0.326226	0.006	-0.12857	0	-3.99776	0	0	0	0	0.779323	0	-0.286092	0	0	0
0.55	75.8754	639.225	-40.7262	0.332203	0.006	-0.12979	0	-3.93504	0	0	0	0	0.779323	0	-0.286092	0	0	0
0.56	82.912	644.151	-37.1484	0.338168	0.006	-0.131229	0	-3.90246	0	0	0	0	0.779323	0	-0.286092	0	0	0
0.57	90.5218	646.579	-32.6572	0.3439	0.006	-0.132692	0	-3.87876	0	0.3268	2.2407	-0.48037	0.779323	0.0006	-0.286092	0	0.0904906	0
0.58	98.0152	645.259	-27.8189	0.349217	0.006	-0.134021	0	-3.82046	0	10.3487	54.9501	-4.61556	0.787693	0.006	-0.299175	0	0.96835	0
0.59	105.685	639.935	-22.6059	0.353914	0.006	-0.135153	0	-3.75577	0	16.5704	123.546	-2.25331	0.797801	0.006	-0.312346	0	0.771827	0
0.6	113.021	631.234	-17.196	0.357987	0.006	-0.136155	0	-3.64205	0	5.42633	183.564	1.19129	0.804546	0.006	-0.318037	0	0.523464	0
0.61	119.319	616.501	-12.345	0.361564	0.006	-0.13681	0	-3.3416	0	-11.3022	245.224	4.43469	0.814448	0.006	-0.3194	0	0.466262	0
0.62	125.035	590.657	-7.67835	0.364953	0.006	-0.137012	0	-2.87592	0	-32.5261	325.194	3.84917	0.830353	0.006	-0.315997	0	0.300545	0
0.63	129.349	551.183	-2.97671	0.368303	0.006	-0.136759	0	-2.34501	0	-59.7261	399.601	0.288126	0.845395	0.006	-0.31125	0	0.210011	0
0.64	128.992	498.515	0.245293	0.372054	0.006	-0.135939	0	-1.72693	0	-73.7266	432.554	-0.553211	0.854263	0.006	-0.308062	0	0.41566	0
0.65	122.504	434.029	1.88206	0.376609	0.006	-0.134663	0	-1.02851	0	-76.3403	427.798	1.01314	0.860074	0.006	-0.30647	0	0.39093	0
0.66	111.601	360.562	3.54824	0.382068	0.006	-0.133077	0	-0.552881	0	-80.3487	419.433	2.19152	0.86563	0.006	-0.305686	0	-0.0771613	0
0.67	95.2064	286.477	5.57413	0.388814	0.006	-0.13155	0	-0.396533	0	-85.3978	428.824	5.62808	0.870376	0.006	-0.305552	0	-0.583708	0
0.68	75.6063	217.448	6.78158	0.396341	0.006	-0.130314	0	-0.291026	0	-88.5328	455.688	13.4815	0.874594	0.006	-0.305939	0	-1.00806	0
0.69	56.5758	154.152	7.12651	0.403872	0.006	-0.129383	0	-0.267062	0	-93.8202	493.468	22.9059	0.879823	0.006	-0.306076	0	-1.61718	0
0.7	36.6006	102.43	6.53139	0.413058	0.006	-0.129365	0	-0.193176	0	-100.654	531.338	30.4267	0.884938	0.006	-0.305874	0	-2.24811	0
0.71	17.6143	64.6203	5.39989	0.424344	0.006	-0.130614	0	-0.125007	0	-103.956	567.279	36.0802	0.888943	0.006	-0.305506	0	-2.72083	0
0.72	3.70741	38.0162	4.46032	0.43725	0.006	-0.132705	0	-0.0710639	0	-101.202	600.543	38.8996	0.89143	0.006	-0.304969	0	-3.01305	0
0.73	-0.82781	9.48678	1.51599	0.454295	0.0024	-0.133146	0	-0.0277871	0	-92.1293	624.468	40.5177	0.89292	0.006	-0.304413	0	-3.18722	0
0.74	0	0	0	0.480534	0	-0.133175	0	0	0	-81.6182	635.408	42.501	0.894486	0.006	-0.303996	0	-3.32434	0
0.75	0	0	0	0.507373	0	-0.133257	0	0	0	-73.4062	635.053	44.2946	0.896649	0.006	-0.30361	0	-3.45986	0
0.76	0	0	0	0.534212	0	-0.133339	0	0	0	-67.7135	628.717	45.1269	0.899436	0.006	-0.303124	0	-3.52896	0
0.77	0	0	0	0.561052	0	-0.133422	0	0	0	-63.472	621.987	44.5826	0.902589	0.006	-0.302353	0	-3.51744	0
0.78	0	0	0	0.587891	0	-0.133504	0	0	0	-59.9662	616.463	42.9904	0.90595	0.006	-0.30132	0	-3.37198	0
0.79	0	0	0	0.614731	0	-0.133586	0	0	0	-56.0833	610.381	41.5998	0.909395	0.006	-0.300357	0	-3.14289	0
0.8	0	0	0	0.64157	0	-0.133669	0	0	0	-51.937	602.105	41.2123	0.913076	0.006	-0.299581	0	-2.92177	0
0.81	0	0	0	0.668409	0	-0.133751	0	0	0	-48.1947	590.522	41.115	0.917078	0.006	-0.298824	0	-2.70506	0
0.82	0	0	0	0.695249	0	-0.133834	0	0	0	-45.0379	575.791	40.4932	0.921282	0.006	-0.297879	0	-2.45864	0
0.83	0	0	0	0.722088	0	-0.133916	0	0	0	-42.2812	559.515	38.8193	0.925495	0.006	-0.296882	0	-2.1459	0
